<svg xmlns="http://www.w3.org/2000/svg" width="2217" height="2217" viewBox="0 0 2217 2217" version="1.1"><path d="M 980.964 148.999 C 624.018 171.493, 439.005 588.157, 661.969 867.401 C 880.313 1140.859, 1317.632 1063.200, 1427.960 731.375 C 1526.787 434.140, 1292.845 129.344, 980.964 148.999 M 993 409.662 C 836.446 424.976, 769.241 613.753, 881.752 722.157 C 989.092 825.578, 1168.804 762.490, 1188.501 614.473 C 1203.648 500.644, 1106.230 398.587, 993 409.662 M 1828.500 878.081 C 1776.482 883.262, 1730.911 920.869, 1716.535 970.476 C 1710.753 990.428, 1711.008 979.721, 1711.004 1202.367 L 1711 1407.233 1708.250 1406.636 C 1407.286 1341.311, 1180.367 1675.434, 1353.828 1928.500 C 1511.808 2158.981, 1866.273 2108.257, 1954.802 1842.500 C 1972.024 1790.799, 1972 1791.239, 1972 1531.287 L 1972 1321.040 1979.092 1325.628 C 2098.996 1403.193, 2240.511 1252.640, 2154.548 1138.967 C 2144.605 1125.819, 1924.757 906.747, 1914.992 900.256 C 1888.902 882.914, 1858.425 875.101, 1828.500 878.081 M 555 1191.089 C 268.388 1211.105, 44.926 1448.389, 44.655 1733 C 44.485 1912.077, 170.980 2053.201, 350.500 2074.213 C 370.478 2076.551, 1055.926 2076.055, 1066.875 2073.694 C 1207.798 2043.309, 1209.758 1851.866, 1069.500 1817.315 C 1062.963 1815.705, 1039.562 1815.554, 716 1815.041 L 369.500 1814.492 362.027 1812.181 C 316.076 1797.969, 298.503 1760.561, 307.919 1697 C 326.687 1570.315, 421.465 1474.610, 548.763 1453.799 L 562.500 1451.553 873 1450.994 L 1183.500 1450.434 1193.244 1448.198 C 1334.930 1415.678, 1329.218 1213.205, 1186 1191.455 C 1175.349 1189.837, 577.884 1189.491, 555 1191.089 M 1618.500 1660.428 C 1567.165 1670.593, 1539.985 1726.739, 1564.033 1772.943 C 1592.946 1828.496, 1673.059 1828.512, 1701.955 1772.971 C 1731.716 1715.766, 1681.439 1647.966, 1618.500 1660.428" stroke="none" fill="#3a3a3a" fill-rule="evenodd"/><path d="M 980.964 148.999 C 624.018 171.493, 439.005 588.157, 661.969 867.401 C 880.313 1140.859, 1317.632 1063.200, 1427.960 731.375 C 1526.787 434.140, 1292.845 129.344, 980.964 148.999 M 993 409.662 C 836.446 424.976, 769.241 613.753, 881.752 722.157 C 989.092 825.578, 1168.804 762.490, 1188.501 614.473 C 1203.648 500.644, 1106.230 398.587, 993 409.662 M 1828.500 878.081 C 1776.482 883.262, 1730.911 920.869, 1716.535 970.476 C 1710.753 990.428, 1711.008 979.721, 1711.004 1202.367 L 1711 1407.233 1708.250 1406.636 C 1407.286 1341.311, 1180.367 1675.434, 1353.828 1928.500 C 1511.808 2158.981, 1866.273 2108.257, 1954.802 1842.500 C 1972.024 1790.799, 1972 1791.239, 1972 1531.287 L 1972 1321.040 1979.092 1325.628 C 2098.996 1403.193, 2240.511 1252.640, 2154.548 1138.967 C 2144.605 1125.819, 1924.757 906.747, 1914.992 900.256 C 1888.902 882.914, 1858.425 875.101, 1828.500 878.081 M 555 1191.089 C 268.388 1211.105, 44.926 1448.389, 44.655 1733 C 44.485 1912.077, 170.980 2053.201, 350.500 2074.213 C 370.478 2076.551, 1055.926 2076.055, 1066.875 2073.694 C 1207.798 2043.309, 1209.758 1851.866, 1069.500 1817.315 C 1062.963 1815.705, 1039.562 1815.554, 716 1815.041 L 369.500 1814.492 362.027 1812.181 C 316.076 1797.969, 298.503 1760.561, 307.919 1697 C 326.687 1570.315, 421.465 1474.610, 548.763 1453.799 L 562.500 1451.553 873 1450.994 L 1183.500 1450.434 1193.244 1448.198 C 1334.930 1415.678, 1329.218 1213.205, 1186 1191.455 C 1175.349 1189.837, 577.884 1189.491, 555 1191.089 M 1618.500 1660.428 C 1567.165 1670.593, 1539.985 1726.739, 1564.033 1772.943 C 1592.946 1828.496, 1673.059 1828.512, 1701.955 1772.971 C 1731.716 1715.766, 1681.439 1647.966, 1618.500 1660.428" stroke="none" fill="#3a3a3a" fill-rule="evenodd"/><path d="M 980.964 148.999 C 624.018 171.493, 439.005 588.157, 661.969 867.401 C 880.313 1140.859, 1317.632 1063.200, 1427.960 731.375 C 1526.787 434.140, 1292.845 129.344, 980.964 148.999 M 993 409.662 C 836.446 424.976, 769.241 613.753, 881.752 722.157 C 989.092 825.578, 1168.804 762.490, 1188.501 614.473 C 1203.648 500.644, 1106.230 398.587, 993 409.662 M 1828.500 878.081 C 1776.482 883.262, 1730.911 920.869, 1716.535 970.476 C 1710.753 990.428, 1711.008 979.721, 1711.004 1202.367 L 1711 1407.233 1708.250 1406.636 C 1407.286 1341.311, 1180.367 1675.434, 1353.828 1928.500 C 1511.808 2158.981, 1866.273 2108.257, 1954.802 1842.500 C 1972.024 1790.799, 1972 1791.239, 1972 1531.287 L 1972 1321.040 1979.092 1325.628 C 2098.996 1403.193, 2240.511 1252.640, 2154.548 1138.967 C 2144.605 1125.819, 1924.757 906.747, 1914.992 900.256 C 1888.902 882.914, 1858.425 875.101, 1828.500 878.081 M 555 1191.089 C 268.388 1211.105, 44.926 1448.389, 44.655 1733 C 44.485 1912.077, 170.980 2053.201, 350.500 2074.213 C 370.478 2076.551, 1055.926 2076.055, 1066.875 2073.694 C 1207.798 2043.309, 1209.758 1851.866, 1069.500 1817.315 C 1062.963 1815.705, 1039.562 1815.554, 716 1815.041 L 369.500 1814.492 362.027 1812.181 C 316.076 1797.969, 298.503 1760.561, 307.919 1697 C 326.687 1570.315, 421.465 1474.610, 548.763 1453.799 L 562.500 1451.553 873 1450.994 L 1183.500 1450.434 1193.244 1448.198 C 1334.930 1415.678, 1329.218 1213.205, 1186 1191.455 C 1175.349 1189.837, 577.884 1189.491, 555 1191.089 M 1618.500 1660.428 C 1567.165 1670.593, 1539.985 1726.739, 1564.033 1772.943 C 1592.946 1828.496, 1673.059 1828.512, 1701.955 1772.971 C 1731.716 1715.766, 1681.439 1647.966, 1618.500 1660.428" stroke="none" fill="#3a3a3a" fill-rule="evenodd"/></svg>