<svg xmlns="http://www.w3.org/2000/svg" width="2217" height="2217" viewBox="0 0 2217 2217" version="1.1"><path d="M 1903.965 723.750 C 1903.928 1464.567, 1904.197 1424.814, 1899.155 1434.697 C 1890.205 1452.240, 1872.252 1453.716, 1822 1441.042 C 1813.437 1438.882, 1800.034 1435.631, 1777 1430.128 C 1696.312 1410.850, 1614.424 1408.077, 1539 1422.070 C 1510.155 1427.422, 1482.380 1434.454, 1461.500 1441.693 C 1457.650 1443.028, 1452.250 1444.796, 1449.500 1445.622 C 1446.750 1446.448, 1443.150 1447.726, 1441.500 1448.463 C 1439.850 1449.199, 1436.250 1450.550, 1433.500 1451.466 C 1428.018 1453.290, 1421.084 1456.166, 1407.829 1462.111 C 1403.059 1464.250, 1398.872 1466, 1398.524 1466 C 1397.719 1466, 1365.834 1481.952, 1360.500 1485.024 C 1358.300 1486.290, 1355.152 1488.016, 1353.505 1488.859 C 1351.857 1489.702, 1346.907 1492.619, 1342.505 1495.341 C 1338.102 1498.063, 1333.038 1501.169, 1331.251 1502.243 C 1329.465 1503.317, 1328.297 1504.671, 1328.656 1505.252 C 1329.046 1505.884, 1328.830 1506.013, 1328.118 1505.573 C 1326.009 1504.270, 1277.558 1538.382, 1277.455 1541.243 C 1277.430 1541.935, 1276.865 1542.387, 1276.200 1542.249 C 1274.569 1541.909, 1253.506 1560.297, 1253.478 1562.085 C 1253.465 1562.863, 1252.773 1563.390, 1251.939 1563.255 C 1251.105 1563.120, 1247.980 1565.482, 1244.995 1568.505 C 1242.011 1571.527, 1239.946 1574, 1240.407 1574 C 1240.868 1574, 1240.689 1574.670, 1240.009 1575.489 C 1239.329 1576.308, 1238.440 1576.772, 1238.032 1576.520 C 1237.216 1576.015, 1232.410 1580.758, 1232.650 1581.831 C 1232.733 1582.199, 1232.455 1582.407, 1232.033 1582.294 C 1231.115 1582.048, 1227.189 1586.078, 1226.961 1587.500 C 1226.872 1588.050, 1226.447 1588.405, 1226.015 1588.288 C 1224.558 1587.896, 1213.850 1599.948, 1214.591 1601.147 C 1214.995 1601.802, 1214.876 1602.041, 1214.317 1601.696 C 1212.638 1600.658, 1193.525 1622.423, 1194.595 1624.154 C 1194.900 1624.647, 1194.696 1624.926, 1194.143 1624.775 C 1192.754 1624.395, 1187.921 1631.064, 1188.688 1632.304 C 1189.029 1632.857, 1188.861 1633.032, 1188.314 1632.694 C 1186.979 1631.869, 1182.720 1637.737, 1183.609 1639.176 C 1184.026 1639.851, 1183.864 1640.034, 1183.206 1639.627 C 1181.783 1638.748, 1173.666 1649.650, 1174.608 1651.175 C 1174.994 1651.799, 1174.893 1652.052, 1174.384 1651.737 C 1172.993 1650.877, 1157.250 1674.966, 1147.745 1692.500 C 1100.351 1779.922, 1086.290 1872.513, 1108.795 1949 C 1114.355 1967.897, 1115.873 1971.889, 1124.770 1991 C 1131.765 2006.025, 1147.554 2031.394, 1149.255 2030.342 C 1149.842 2029.979, 1150.016 2030.165, 1149.648 2030.760 C 1148.570 2032.505, 1162.617 2050.355, 1164.267 2049.335 C 1164.843 2048.979, 1165.013 2049.169, 1164.648 2049.761 C 1163.771 2051.179, 1168.881 2057.192, 1170.246 2056.348 C 1170.887 2055.952, 1171.014 2056.168, 1170.565 2056.895 C 1169.579 2058.490, 1192.562 2081.389, 1194.158 2080.402 C 1194.841 2079.980, 1195.038 2080.130, 1194.643 2080.769 C 1194.025 2081.768, 1198.226 2085.513, 1200.500 2085.990 C 1201.050 2086.106, 1201.407 2086.547, 1201.293 2086.970 C 1200.741 2089.029, 1236.872 2115.208, 1252.500 2124.073 C 1255.800 2125.945, 1260.300 2128.507, 1262.500 2129.766 C 1268.959 2133.464, 1293.786 2145.414, 1303 2149.259 C 1321.615 2157.028, 1332.725 2160.991, 1356.500 2168.341 C 1370.257 2172.594, 1405.042 2180.435, 1424 2183.556 C 1425.375 2183.783, 1432.575 2184.670, 1440 2185.529 C 1447.425 2186.388, 1457.100 2187.545, 1461.500 2188.101 C 1496.404 2192.513, 1542.698 2192.181, 1590 2187.182 C 1600.725 2186.048, 1617.011 2184.641, 1626.191 2184.054 C 1645.827 2182.800, 1685.276 2177.984, 1699.500 2175.105 C 1705 2173.992, 1712.425 2172.601, 1716 2172.014 C 1719.575 2171.427, 1727 2169.869, 1732.500 2168.552 C 1738 2167.235, 1743.850 2165.881, 1745.500 2165.544 C 1754.100 2163.787, 1789.104 2153.718, 1801 2149.579 C 1821.582 2142.418, 1841.284 2134.929, 1848.500 2131.524 C 1850.150 2130.746, 1856.675 2127.778, 1863 2124.929 C 1899.707 2108.393, 1939.848 2084.706, 1969.503 2062.080 C 1985.977 2049.511, 1992.895 2043.640, 1992.322 2042.712 C 1991.975 2042.151, 1992.105 2041.947, 1992.612 2042.260 C 1993.119 2042.573, 1995.101 2041.480, 1997.017 2039.831 C 1998.932 2038.181, 1999.868 2037.164, 1999.095 2037.570 C 1998.162 2038.061, 1997.934 2037.917, 1998.415 2037.138 C 1998.813 2036.494, 1999.505 2036.194, 1999.953 2036.471 C 2001.665 2037.529, 2038.330 2001.343, 2037.275 1999.636 C 2036.954 1999.116, 2037.160 1998.981, 2037.734 1999.336 C 2038.998 2000.117, 2044.208 1993.574, 2043.207 1992.463 C 2042.818 1992.032, 2042.997 1991.963, 2043.605 1992.309 C 2044.962 1993.082, 2049.044 1988.904, 2049.418 1986.358 C 2049.568 1985.336, 2050.217 1984.500, 2050.860 1984.500 C 2053.202 1984.500, 2074.446 1956.531, 2073.396 1954.831 C 2072.993 1954.180, 2073.132 1953.963, 2073.720 1954.327 C 2075.531 1955.446, 2094.549 1925.763, 2093.355 1923.680 C 2092.983 1923.031, 2093.049 1922.835, 2093.500 1923.244 C 2095.002 1924.604, 2104.582 1906.931, 2114.502 1884.500 C 2120.177 1871.668, 2121.689 1867.759, 2125.918 1855 C 2131.982 1836.705, 2132.056 1836.427, 2137.571 1811.500 C 2142.800 1787.864, 2142.405 1857.098, 2142.721 907.250 L 2143.012 32 2023.506 32 L 1904 32 1903.965 723.750 M 80 182.500 L 80 307 813 307 L 1546 307 1546 182.500 L 1546 58 813 58 L 80 58 80 182.500 M 80 717.500 L 80 842 813 842 L 1546 842 1546 717.500 L 1546 593 813 593 L 80 593 80 717.500 M 80 1251.753 L 80 1376.006 618.250 1375.753 L 1156.500 1375.500 1165.500 1369.609 C 1176.470 1362.429, 1192.508 1352.787, 1201.500 1347.966 C 1203.150 1347.082, 1207.650 1344.626, 1211.500 1342.510 C 1219.054 1338.357, 1246.661 1324.494, 1254 1321.170 C 1280.314 1309.248, 1311.413 1296.897, 1327.500 1291.979 C 1330.800 1290.970, 1336.875 1289.010, 1341 1287.624 C 1373.005 1276.867, 1432.727 1262.936, 1459.500 1259.981 C 1463.350 1259.556, 1473.475 1258.284, 1482 1257.154 C 1495.364 1255.382, 1529.805 1253, 1542.055 1253 L 1546 1253 1546 1190.501 L 1546 1128.003 813 1127.751 L 80 1127.500 80 1251.753 M 80 1786.493 L 80 1910.985 474.939 1910.996 C 692.155 1911.002, 870.078 1910.668, 870.323 1910.254 C 870.567 1909.839, 870.303 1906.575, 869.736 1903 C 868.327 1894.127, 868.354 1837.691, 869.772 1826.500 C 870.399 1821.550, 871.665 1810.975, 872.584 1803 C 875.355 1778.955, 882.882 1743.221, 889.962 1720.500 C 891.504 1715.550, 893.450 1709.250, 894.286 1706.500 C 896.519 1699.157, 906.327 1672.671, 909.375 1665.750 L 911.027 1662 495.513 1662 L 80 1662 80 1786.493 M 1514.292 2190.742 C 1518.027 2190.935, 1523.877 2190.934, 1527.292 2190.739 C 1530.706 2190.545, 1527.650 2190.387, 1520.500 2190.389 C 1513.350 2190.390, 1510.556 2190.550, 1514.292 2190.742" stroke="none" fill="#3a3a3a" fill-rule="evenodd"/><path d="M 1903.965 723.750 C 1903.928 1464.567, 1904.197 1424.814, 1899.155 1434.697 C 1890.205 1452.240, 1872.252 1453.716, 1822 1441.042 C 1813.437 1438.882, 1800.034 1435.631, 1777 1430.128 C 1696.312 1410.850, 1614.424 1408.077, 1539 1422.070 C 1510.155 1427.422, 1482.380 1434.454, 1461.500 1441.693 C 1457.650 1443.028, 1452.250 1444.796, 1449.500 1445.622 C 1446.750 1446.448, 1443.150 1447.726, 1441.500 1448.463 C 1439.850 1449.199, 1436.250 1450.550, 1433.500 1451.466 C 1428.018 1453.290, 1421.084 1456.166, 1407.829 1462.111 C 1403.059 1464.250, 1398.872 1466, 1398.524 1466 C 1397.719 1466, 1365.834 1481.952, 1360.500 1485.024 C 1358.300 1486.290, 1355.152 1488.016, 1353.505 1488.859 C 1351.857 1489.702, 1346.907 1492.619, 1342.505 1495.341 C 1338.102 1498.063, 1333.038 1501.169, 1331.251 1502.243 C 1329.465 1503.317, 1328.297 1504.671, 1328.656 1505.252 C 1329.046 1505.884, 1328.830 1506.013, 1328.118 1505.573 C 1326.009 1504.270, 1277.558 1538.382, 1277.455 1541.243 C 1277.430 1541.935, 1276.865 1542.387, 1276.200 1542.249 C 1274.569 1541.909, 1253.506 1560.297, 1253.478 1562.085 C 1253.465 1562.863, 1252.773 1563.390, 1251.939 1563.255 C 1251.105 1563.120, 1247.980 1565.482, 1244.995 1568.505 C 1242.011 1571.527, 1239.946 1574, 1240.407 1574 C 1240.868 1574, 1240.689 1574.670, 1240.009 1575.489 C 1239.329 1576.308, 1238.440 1576.772, 1238.032 1576.520 C 1237.216 1576.015, 1232.410 1580.758, 1232.650 1581.831 C 1232.733 1582.199, 1232.455 1582.407, 1232.033 1582.294 C 1231.115 1582.048, 1227.189 1586.078, 1226.961 1587.500 C 1226.872 1588.050, 1226.447 1588.405, 1226.015 1588.288 C 1224.558 1587.896, 1213.850 1599.948, 1214.591 1601.147 C 1214.995 1601.802, 1214.876 1602.041, 1214.317 1601.696 C 1212.638 1600.658, 1193.525 1622.423, 1194.595 1624.154 C 1194.900 1624.647, 1194.696 1624.926, 1194.143 1624.775 C 1192.754 1624.395, 1187.921 1631.064, 1188.688 1632.304 C 1189.029 1632.857, 1188.861 1633.032, 1188.314 1632.694 C 1186.979 1631.869, 1182.720 1637.737, 1183.609 1639.176 C 1184.026 1639.851, 1183.864 1640.034, 1183.206 1639.627 C 1181.783 1638.748, 1173.666 1649.650, 1174.608 1651.175 C 1174.994 1651.799, 1174.893 1652.052, 1174.384 1651.737 C 1172.993 1650.877, 1157.250 1674.966, 1147.745 1692.500 C 1100.351 1779.922, 1086.290 1872.513, 1108.795 1949 C 1114.355 1967.897, 1115.873 1971.889, 1124.770 1991 C 1131.765 2006.025, 1147.554 2031.394, 1149.255 2030.342 C 1149.842 2029.979, 1150.016 2030.165, 1149.648 2030.760 C 1148.570 2032.505, 1162.617 2050.355, 1164.267 2049.335 C 1164.843 2048.979, 1165.013 2049.169, 1164.648 2049.761 C 1163.771 2051.179, 1168.881 2057.192, 1170.246 2056.348 C 1170.887 2055.952, 1171.014 2056.168, 1170.565 2056.895 C 1169.579 2058.490, 1192.562 2081.389, 1194.158 2080.402 C 1194.841 2079.980, 1195.038 2080.130, 1194.643 2080.769 C 1194.025 2081.768, 1198.226 2085.513, 1200.500 2085.990 C 1201.050 2086.106, 1201.407 2086.547, 1201.293 2086.970 C 1200.741 2089.029, 1236.872 2115.208, 1252.500 2124.073 C 1255.800 2125.945, 1260.300 2128.507, 1262.500 2129.766 C 1268.959 2133.464, 1293.786 2145.414, 1303 2149.259 C 1321.615 2157.028, 1332.725 2160.991, 1356.500 2168.341 C 1370.257 2172.594, 1405.042 2180.435, 1424 2183.556 C 1425.375 2183.783, 1432.575 2184.670, 1440 2185.529 C 1447.425 2186.388, 1457.100 2187.545, 1461.500 2188.101 C 1496.404 2192.513, 1542.698 2192.181, 1590 2187.182 C 1600.725 2186.048, 1617.011 2184.641, 1626.191 2184.054 C 1645.827 2182.800, 1685.276 2177.984, 1699.500 2175.105 C 1705 2173.992, 1712.425 2172.601, 1716 2172.014 C 1719.575 2171.427, 1727 2169.869, 1732.500 2168.552 C 1738 2167.235, 1743.850 2165.881, 1745.500 2165.544 C 1754.100 2163.787, 1789.104 2153.718, 1801 2149.579 C 1821.582 2142.418, 1841.284 2134.929, 1848.500 2131.524 C 1850.150 2130.746, 1856.675 2127.778, 1863 2124.929 C 1899.707 2108.393, 1939.848 2084.706, 1969.503 2062.080 C 1985.977 2049.511, 1992.895 2043.640, 1992.322 2042.712 C 1991.975 2042.151, 1992.105 2041.947, 1992.612 2042.260 C 1993.119 2042.573, 1995.101 2041.480, 1997.017 2039.831 C 1998.932 2038.181, 1999.868 2037.164, 1999.095 2037.570 C 1998.162 2038.061, 1997.934 2037.917, 1998.415 2037.138 C 1998.813 2036.494, 1999.505 2036.194, 1999.953 2036.471 C 2001.665 2037.529, 2038.330 2001.343, 2037.275 1999.636 C 2036.954 1999.116, 2037.160 1998.981, 2037.734 1999.336 C 2038.998 2000.117, 2044.208 1993.574, 2043.207 1992.463 C 2042.818 1992.032, 2042.997 1991.963, 2043.605 1992.309 C 2044.962 1993.082, 2049.044 1988.904, 2049.418 1986.358 C 2049.568 1985.336, 2050.217 1984.500, 2050.860 1984.500 C 2053.202 1984.500, 2074.446 1956.531, 2073.396 1954.831 C 2072.993 1954.180, 2073.132 1953.963, 2073.720 1954.327 C 2075.531 1955.446, 2094.549 1925.763, 2093.355 1923.680 C 2092.983 1923.031, 2093.049 1922.835, 2093.500 1923.244 C 2095.002 1924.604, 2104.582 1906.931, 2114.502 1884.500 C 2120.177 1871.668, 2121.689 1867.759, 2125.918 1855 C 2131.982 1836.705, 2132.056 1836.427, 2137.571 1811.500 C 2142.800 1787.864, 2142.405 1857.098, 2142.721 907.250 L 2143.012 32 2023.506 32 L 1904 32 1903.965 723.750 M 80 182.500 L 80 307 813 307 L 1546 307 1546 182.500 L 1546 58 813 58 L 80 58 80 182.500 M 80 717.500 L 80 842 813 842 L 1546 842 1546 717.500 L 1546 593 813 593 L 80 593 80 717.500 M 80 1251.753 L 80 1376.006 618.250 1375.753 L 1156.500 1375.500 1165.500 1369.609 C 1176.470 1362.429, 1192.508 1352.787, 1201.500 1347.966 C 1203.150 1347.082, 1207.650 1344.626, 1211.500 1342.510 C 1219.054 1338.357, 1246.661 1324.494, 1254 1321.170 C 1280.314 1309.248, 1311.413 1296.897, 1327.500 1291.979 C 1330.800 1290.970, 1336.875 1289.010, 1341 1287.624 C 1373.005 1276.867, 1432.727 1262.936, 1459.500 1259.981 C 1463.350 1259.556, 1473.475 1258.284, 1482 1257.154 C 1495.364 1255.382, 1529.805 1253, 1542.055 1253 L 1546 1253 1546 1190.501 L 1546 1128.003 813 1127.751 L 80 1127.500 80 1251.753 M 80 1786.493 L 80 1910.985 474.939 1910.996 C 692.155 1911.002, 870.078 1910.668, 870.323 1910.254 C 870.567 1909.839, 870.303 1906.575, 869.736 1903 C 868.327 1894.127, 868.354 1837.691, 869.772 1826.500 C 870.399 1821.550, 871.665 1810.975, 872.584 1803 C 875.355 1778.955, 882.882 1743.221, 889.962 1720.500 C 891.504 1715.550, 893.450 1709.250, 894.286 1706.500 C 896.519 1699.157, 906.327 1672.671, 909.375 1665.750 L 911.027 1662 495.513 1662 L 80 1662 80 1786.493 M 1514.292 2190.742 C 1518.027 2190.935, 1523.877 2190.934, 1527.292 2190.739 C 1530.706 2190.545, 1527.650 2190.387, 1520.500 2190.389 C 1513.350 2190.390, 1510.556 2190.550, 1514.292 2190.742" stroke="none" fill="#3a3a3a" fill-rule="evenodd"/><path d="M 1903.965 723.750 C 1903.928 1464.567, 1904.197 1424.814, 1899.155 1434.697 C 1890.205 1452.240, 1872.252 1453.716, 1822 1441.042 C 1813.437 1438.882, 1800.034 1435.631, 1777 1430.128 C 1696.312 1410.850, 1614.424 1408.077, 1539 1422.070 C 1510.155 1427.422, 1482.380 1434.454, 1461.500 1441.693 C 1457.650 1443.028, 1452.250 1444.796, 1449.500 1445.622 C 1446.750 1446.448, 1443.150 1447.726, 1441.500 1448.463 C 1439.850 1449.199, 1436.250 1450.550, 1433.500 1451.466 C 1428.018 1453.290, 1421.084 1456.166, 1407.829 1462.111 C 1403.059 1464.250, 1398.872 1466, 1398.524 1466 C 1397.719 1466, 1365.834 1481.952, 1360.500 1485.024 C 1358.300 1486.290, 1355.152 1488.016, 1353.505 1488.859 C 1351.857 1489.702, 1346.907 1492.619, 1342.505 1495.341 C 1338.102 1498.063, 1333.038 1501.169, 1331.251 1502.243 C 1329.465 1503.317, 1328.297 1504.671, 1328.656 1505.252 C 1329.046 1505.884, 1328.830 1506.013, 1328.118 1505.573 C 1326.009 1504.270, 1277.558 1538.382, 1277.455 1541.243 C 1277.430 1541.935, 1276.865 1542.387, 1276.200 1542.249 C 1274.569 1541.909, 1253.506 1560.297, 1253.478 1562.085 C 1253.465 1562.863, 1252.773 1563.390, 1251.939 1563.255 C 1251.105 1563.120, 1247.980 1565.482, 1244.995 1568.505 C 1242.011 1571.527, 1239.946 1574, 1240.407 1574 C 1240.868 1574, 1240.689 1574.670, 1240.009 1575.489 C 1239.329 1576.308, 1238.440 1576.772, 1238.032 1576.520 C 1237.216 1576.015, 1232.410 1580.758, 1232.650 1581.831 C 1232.733 1582.199, 1232.455 1582.407, 1232.033 1582.294 C 1231.115 1582.048, 1227.189 1586.078, 1226.961 1587.500 C 1226.872 1588.050, 1226.447 1588.405, 1226.015 1588.288 C 1224.558 1587.896, 1213.850 1599.948, 1214.591 1601.147 C 1214.995 1601.802, 1214.876 1602.041, 1214.317 1601.696 C 1212.638 1600.658, 1193.525 1622.423, 1194.595 1624.154 C 1194.900 1624.647, 1194.696 1624.926, 1194.143 1624.775 C 1192.754 1624.395, 1187.921 1631.064, 1188.688 1632.304 C 1189.029 1632.857, 1188.861 1633.032, 1188.314 1632.694 C 1186.979 1631.869, 1182.720 1637.737, 1183.609 1639.176 C 1184.026 1639.851, 1183.864 1640.034, 1183.206 1639.627 C 1181.783 1638.748, 1173.666 1649.650, 1174.608 1651.175 C 1174.994 1651.799, 1174.893 1652.052, 1174.384 1651.737 C 1172.993 1650.877, 1157.250 1674.966, 1147.745 1692.500 C 1100.351 1779.922, 1086.290 1872.513, 1108.795 1949 C 1114.355 1967.897, 1115.873 1971.889, 1124.770 1991 C 1131.765 2006.025, 1147.554 2031.394, 1149.255 2030.342 C 1149.842 2029.979, 1150.016 2030.165, 1149.648 2030.760 C 1148.570 2032.505, 1162.617 2050.355, 1164.267 2049.335 C 1164.843 2048.979, 1165.013 2049.169, 1164.648 2049.761 C 1163.771 2051.179, 1168.881 2057.192, 1170.246 2056.348 C 1170.887 2055.952, 1171.014 2056.168, 1170.565 2056.895 C 1169.579 2058.490, 1192.562 2081.389, 1194.158 2080.402 C 1194.841 2079.980, 1195.038 2080.130, 1194.643 2080.769 C 1194.025 2081.768, 1198.226 2085.513, 1200.500 2085.990 C 1201.050 2086.106, 1201.407 2086.547, 1201.293 2086.970 C 1200.741 2089.029, 1236.872 2115.208, 1252.500 2124.073 C 1255.800 2125.945, 1260.300 2128.507, 1262.500 2129.766 C 1268.959 2133.464, 1293.786 2145.414, 1303 2149.259 C 1321.615 2157.028, 1332.725 2160.991, 1356.500 2168.341 C 1370.257 2172.594, 1405.042 2180.435, 1424 2183.556 C 1425.375 2183.783, 1432.575 2184.670, 1440 2185.529 C 1447.425 2186.388, 1457.100 2187.545, 1461.500 2188.101 C 1496.404 2192.513, 1542.698 2192.181, 1590 2187.182 C 1600.725 2186.048, 1617.011 2184.641, 1626.191 2184.054 C 1645.827 2182.800, 1685.276 2177.984, 1699.500 2175.105 C 1705 2173.992, 1712.425 2172.601, 1716 2172.014 C 1719.575 2171.427, 1727 2169.869, 1732.500 2168.552 C 1738 2167.235, 1743.850 2165.881, 1745.500 2165.544 C 1754.100 2163.787, 1789.104 2153.718, 1801 2149.579 C 1821.582 2142.418, 1841.284 2134.929, 1848.500 2131.524 C 1850.150 2130.746, 1856.675 2127.778, 1863 2124.929 C 1899.707 2108.393, 1939.848 2084.706, 1969.503 2062.080 C 1985.977 2049.511, 1992.895 2043.640, 1992.322 2042.712 C 1991.975 2042.151, 1992.105 2041.947, 1992.612 2042.260 C 1993.119 2042.573, 1995.101 2041.480, 1997.017 2039.831 C 1998.932 2038.181, 1999.868 2037.164, 1999.095 2037.570 C 1998.162 2038.061, 1997.934 2037.917, 1998.415 2037.138 C 1998.813 2036.494, 1999.505 2036.194, 1999.953 2036.471 C 2001.665 2037.529, 2038.330 2001.343, 2037.275 1999.636 C 2036.954 1999.116, 2037.160 1998.981, 2037.734 1999.336 C 2038.998 2000.117, 2044.208 1993.574, 2043.207 1992.463 C 2042.818 1992.032, 2042.997 1991.963, 2043.605 1992.309 C 2044.962 1993.082, 2049.044 1988.904, 2049.418 1986.358 C 2049.568 1985.336, 2050.217 1984.500, 2050.860 1984.500 C 2053.202 1984.500, 2074.446 1956.531, 2073.396 1954.831 C 2072.993 1954.180, 2073.132 1953.963, 2073.720 1954.327 C 2075.531 1955.446, 2094.549 1925.763, 2093.355 1923.680 C 2092.983 1923.031, 2093.049 1922.835, 2093.500 1923.244 C 2095.002 1924.604, 2104.582 1906.931, 2114.502 1884.500 C 2120.177 1871.668, 2121.689 1867.759, 2125.918 1855 C 2131.982 1836.705, 2132.056 1836.427, 2137.571 1811.500 C 2142.800 1787.864, 2142.405 1857.098, 2142.721 907.250 L 2143.012 32 2023.506 32 L 1904 32 1903.965 723.750 M 80 182.500 L 80 307 813 307 L 1546 307 1546 182.500 L 1546 58 813 58 L 80 58 80 182.500 M 80 717.500 L 80 842 813 842 L 1546 842 1546 717.500 L 1546 593 813 593 L 80 593 80 717.500 M 80 1251.753 L 80 1376.006 618.250 1375.753 L 1156.500 1375.500 1165.500 1369.609 C 1176.470 1362.429, 1192.508 1352.787, 1201.500 1347.966 C 1203.150 1347.082, 1207.650 1344.626, 1211.500 1342.510 C 1219.054 1338.357, 1246.661 1324.494, 1254 1321.170 C 1280.314 1309.248, 1311.413 1296.897, 1327.500 1291.979 C 1330.800 1290.970, 1336.875 1289.010, 1341 1287.624 C 1373.005 1276.867, 1432.727 1262.936, 1459.500 1259.981 C 1463.350 1259.556, 1473.475 1258.284, 1482 1257.154 C 1495.364 1255.382, 1529.805 1253, 1542.055 1253 L 1546 1253 1546 1190.501 L 1546 1128.003 813 1127.751 L 80 1127.500 80 1251.753 M 80 1786.493 L 80 1910.985 474.939 1910.996 C 692.155 1911.002, 870.078 1910.668, 870.323 1910.254 C 870.567 1909.839, 870.303 1906.575, 869.736 1903 C 868.327 1894.127, 868.354 1837.691, 869.772 1826.500 C 870.399 1821.550, 871.665 1810.975, 872.584 1803 C 875.355 1778.955, 882.882 1743.221, 889.962 1720.500 C 891.504 1715.550, 893.450 1709.250, 894.286 1706.500 C 896.519 1699.157, 906.327 1672.671, 909.375 1665.750 L 911.027 1662 495.513 1662 L 80 1662 80 1786.493 M 1514.292 2190.742 C 1518.027 2190.935, 1523.877 2190.934, 1527.292 2190.739 C 1530.706 2190.545, 1527.650 2190.387, 1520.500 2190.389 C 1513.350 2190.390, 1510.556 2190.550, 1514.292 2190.742" stroke="none" fill="#3a3a3a" fill-rule="evenodd"/><path d="M 1903.965 723.750 C 1903.928 1464.567, 1904.197 1424.814, 1899.155 1434.697 C 1890.205 1452.240, 1872.252 1453.716, 1822 1441.042 C 1813.437 1438.882, 1800.034 1435.631, 1777 1430.128 C 1696.312 1410.850, 1614.424 1408.077, 1539 1422.070 C 1510.155 1427.422, 1482.380 1434.454, 1461.500 1441.693 C 1457.650 1443.028, 1452.250 1444.796, 1449.500 1445.622 C 1446.750 1446.448, 1443.150 1447.726, 1441.500 1448.463 C 1439.850 1449.199, 1436.250 1450.550, 1433.500 1451.466 C 1428.018 1453.290, 1421.084 1456.166, 1407.829 1462.111 C 1403.059 1464.250, 1398.872 1466, 1398.524 1466 C 1397.719 1466, 1365.834 1481.952, 1360.500 1485.024 C 1358.300 1486.290, 1355.152 1488.016, 1353.505 1488.859 C 1351.857 1489.702, 1346.907 1492.619, 1342.505 1495.341 C 1338.102 1498.063, 1333.038 1501.169, 1331.251 1502.243 C 1329.465 1503.317, 1328.297 1504.671, 1328.656 1505.252 C 1329.046 1505.884, 1328.830 1506.013, 1328.118 1505.573 C 1326.009 1504.270, 1277.558 1538.382, 1277.455 1541.243 C 1277.430 1541.935, 1276.865 1542.387, 1276.200 1542.249 C 1274.569 1541.909, 1253.506 1560.297, 1253.478 1562.085 C 1253.465 1562.863, 1252.773 1563.390, 1251.939 1563.255 C 1251.105 1563.120, 1247.980 1565.482, 1244.995 1568.505 C 1242.011 1571.527, 1239.946 1574, 1240.407 1574 C 1240.868 1574, 1240.689 1574.670, 1240.009 1575.489 C 1239.329 1576.308, 1238.440 1576.772, 1238.032 1576.520 C 1237.216 1576.015, 1232.410 1580.758, 1232.650 1581.831 C 1232.733 1582.199, 1232.455 1582.407, 1232.033 1582.294 C 1231.115 1582.048, 1227.189 1586.078, 1226.961 1587.500 C 1226.872 1588.050, 1226.447 1588.405, 1226.015 1588.288 C 1224.558 1587.896, 1213.850 1599.948, 1214.591 1601.147 C 1214.995 1601.802, 1214.876 1602.041, 1214.317 1601.696 C 1212.638 1600.658, 1193.525 1622.423, 1194.595 1624.154 C 1194.900 1624.647, 1194.696 1624.926, 1194.143 1624.775 C 1192.754 1624.395, 1187.921 1631.064, 1188.688 1632.304 C 1189.029 1632.857, 1188.861 1633.032, 1188.314 1632.694 C 1186.979 1631.869, 1182.720 1637.737, 1183.609 1639.176 C 1184.026 1639.851, 1183.864 1640.034, 1183.206 1639.627 C 1181.783 1638.748, 1173.666 1649.650, 1174.608 1651.175 C 1174.994 1651.799, 1174.893 1652.052, 1174.384 1651.737 C 1172.993 1650.877, 1157.250 1674.966, 1147.745 1692.500 C 1100.351 1779.922, 1086.290 1872.513, 1108.795 1949 C 1114.355 1967.897, 1115.873 1971.889, 1124.770 1991 C 1131.765 2006.025, 1147.554 2031.394, 1149.255 2030.342 C 1149.842 2029.979, 1150.016 2030.165, 1149.648 2030.760 C 1148.570 2032.505, 1162.617 2050.355, 1164.267 2049.335 C 1164.843 2048.979, 1165.013 2049.169, 1164.648 2049.761 C 1163.771 2051.179, 1168.881 2057.192, 1170.246 2056.348 C 1170.887 2055.952, 1171.014 2056.168, 1170.565 2056.895 C 1169.579 2058.490, 1192.562 2081.389, 1194.158 2080.402 C 1194.841 2079.980, 1195.038 2080.130, 1194.643 2080.769 C 1194.025 2081.768, 1198.226 2085.513, 1200.500 2085.990 C 1201.050 2086.106, 1201.407 2086.547, 1201.293 2086.970 C 1200.741 2089.029, 1236.872 2115.208, 1252.500 2124.073 C 1255.800 2125.945, 1260.300 2128.507, 1262.500 2129.766 C 1268.959 2133.464, 1293.786 2145.414, 1303 2149.259 C 1321.615 2157.028, 1332.725 2160.991, 1356.500 2168.341 C 1370.257 2172.594, 1405.042 2180.435, 1424 2183.556 C 1425.375 2183.783, 1432.575 2184.670, 1440 2185.529 C 1447.425 2186.388, 1457.100 2187.545, 1461.500 2188.101 C 1496.404 2192.513, 1542.698 2192.181, 1590 2187.182 C 1600.725 2186.048, 1617.011 2184.641, 1626.191 2184.054 C 1645.827 2182.800, 1685.276 2177.984, 1699.500 2175.105 C 1705 2173.992, 1712.425 2172.601, 1716 2172.014 C 1719.575 2171.427, 1727 2169.869, 1732.500 2168.552 C 1738 2167.235, 1743.850 2165.881, 1745.500 2165.544 C 1754.100 2163.787, 1789.104 2153.718, 1801 2149.579 C 1821.582 2142.418, 1841.284 2134.929, 1848.500 2131.524 C 1850.150 2130.746, 1856.675 2127.778, 1863 2124.929 C 1899.707 2108.393, 1939.848 2084.706, 1969.503 2062.080 C 1985.977 2049.511, 1992.895 2043.640, 1992.322 2042.712 C 1991.975 2042.151, 1992.105 2041.947, 1992.612 2042.260 C 1993.119 2042.573, 1995.101 2041.480, 1997.017 2039.831 C 1998.932 2038.181, 1999.868 2037.164, 1999.095 2037.570 C 1998.162 2038.061, 1997.934 2037.917, 1998.415 2037.138 C 1998.813 2036.494, 1999.505 2036.194, 1999.953 2036.471 C 2001.665 2037.529, 2038.330 2001.343, 2037.275 1999.636 C 2036.954 1999.116, 2037.160 1998.981, 2037.734 1999.336 C 2038.998 2000.117, 2044.208 1993.574, 2043.207 1992.463 C 2042.818 1992.032, 2042.997 1991.963, 2043.605 1992.309 C 2044.962 1993.082, 2049.044 1988.904, 2049.418 1986.358 C 2049.568 1985.336, 2050.217 1984.500, 2050.860 1984.500 C 2053.202 1984.500, 2074.446 1956.531, 2073.396 1954.831 C 2072.993 1954.180, 2073.132 1953.963, 2073.720 1954.327 C 2075.531 1955.446, 2094.549 1925.763, 2093.355 1923.680 C 2092.983 1923.031, 2093.049 1922.835, 2093.500 1923.244 C 2095.002 1924.604, 2104.582 1906.931, 2114.502 1884.500 C 2120.177 1871.668, 2121.689 1867.759, 2125.918 1855 C 2131.982 1836.705, 2132.056 1836.427, 2137.571 1811.500 C 2142.800 1787.864, 2142.405 1857.098, 2142.721 907.250 L 2143.012 32 2023.506 32 L 1904 32 1903.965 723.750 M 80 182.500 L 80 307 813 307 L 1546 307 1546 182.500 L 1546 58 813 58 L 80 58 80 182.500 M 80 717.500 L 80 842 813 842 L 1546 842 1546 717.500 L 1546 593 813 593 L 80 593 80 717.500 M 80 1251.753 L 80 1376.006 618.250 1375.753 L 1156.500 1375.500 1165.500 1369.609 C 1176.470 1362.429, 1192.508 1352.787, 1201.500 1347.966 C 1203.150 1347.082, 1207.650 1344.626, 1211.500 1342.510 C 1219.054 1338.357, 1246.661 1324.494, 1254 1321.170 C 1280.314 1309.248, 1311.413 1296.897, 1327.500 1291.979 C 1330.800 1290.970, 1336.875 1289.010, 1341 1287.624 C 1373.005 1276.867, 1432.727 1262.936, 1459.500 1259.981 C 1463.350 1259.556, 1473.475 1258.284, 1482 1257.154 C 1495.364 1255.382, 1529.805 1253, 1542.055 1253 L 1546 1253 1546 1190.501 L 1546 1128.003 813 1127.751 L 80 1127.500 80 1251.753 M 80 1786.493 L 80 1910.985 474.939 1910.996 C 692.155 1911.002, 870.078 1910.668, 870.323 1910.254 C 870.567 1909.839, 870.303 1906.575, 869.736 1903 C 868.327 1894.127, 868.354 1837.691, 869.772 1826.500 C 870.399 1821.550, 871.665 1810.975, 872.584 1803 C 875.355 1778.955, 882.882 1743.221, 889.962 1720.500 C 891.504 1715.550, 893.450 1709.250, 894.286 1706.500 C 896.519 1699.157, 906.327 1672.671, 909.375 1665.750 L 911.027 1662 495.513 1662 L 80 1662 80 1786.493 M 1514.292 2190.742 C 1518.027 2190.935, 1523.877 2190.934, 1527.292 2190.739 C 1530.706 2190.545, 1527.650 2190.387, 1520.500 2190.389 C 1513.350 2190.390, 1510.556 2190.550, 1514.292 2190.742" stroke="none" fill="#3a3a3a" fill-rule="evenodd"/><path d="M 1903.965 723.750 C 1903.928 1464.567, 1904.197 1424.814, 1899.155 1434.697 C 1890.205 1452.240, 1872.252 1453.716, 1822 1441.042 C 1813.437 1438.882, 1800.034 1435.631, 1777 1430.128 C 1696.312 1410.850, 1614.424 1408.077, 1539 1422.070 C 1510.155 1427.422, 1482.380 1434.454, 1461.500 1441.693 C 1457.650 1443.028, 1452.250 1444.796, 1449.500 1445.622 C 1446.750 1446.448, 1443.150 1447.726, 1441.500 1448.463 C 1439.850 1449.199, 1436.250 1450.550, 1433.500 1451.466 C 1428.018 1453.290, 1421.084 1456.166, 1407.829 1462.111 C 1403.059 1464.250, 1398.872 1466, 1398.524 1466 C 1397.719 1466, 1365.834 1481.952, 1360.500 1485.024 C 1358.300 1486.290, 1355.152 1488.016, 1353.505 1488.859 C 1351.857 1489.702, 1346.907 1492.619, 1342.505 1495.341 C 1338.102 1498.063, 1333.038 1501.169, 1331.251 1502.243 C 1329.465 1503.317, 1328.297 1504.671, 1328.656 1505.252 C 1329.046 1505.884, 1328.830 1506.013, 1328.118 1505.573 C 1326.009 1504.270, 1277.558 1538.382, 1277.455 1541.243 C 1277.430 1541.935, 1276.865 1542.387, 1276.200 1542.249 C 1274.569 1541.909, 1253.506 1560.297, 1253.478 1562.085 C 1253.465 1562.863, 1252.773 1563.390, 1251.939 1563.255 C 1251.105 1563.120, 1247.980 1565.482, 1244.995 1568.505 C 1242.011 1571.527, 1239.946 1574, 1240.407 1574 C 1240.868 1574, 1240.689 1574.670, 1240.009 1575.489 C 1239.329 1576.308, 1238.440 1576.772, 1238.032 1576.520 C 1237.216 1576.015, 1232.410 1580.758, 1232.650 1581.831 C 1232.733 1582.199, 1232.455 1582.407, 1232.033 1582.294 C 1231.115 1582.048, 1227.189 1586.078, 1226.961 1587.500 C 1226.872 1588.050, 1226.447 1588.405, 1226.015 1588.288 C 1224.558 1587.896, 1213.850 1599.948, 1214.591 1601.147 C 1214.995 1601.802, 1214.876 1602.041, 1214.317 1601.696 C 1212.638 1600.658, 1193.525 1622.423, 1194.595 1624.154 C 1194.900 1624.647, 1194.696 1624.926, 1194.143 1624.775 C 1192.754 1624.395, 1187.921 1631.064, 1188.688 1632.304 C 1189.029 1632.857, 1188.861 1633.032, 1188.314 1632.694 C 1186.979 1631.869, 1182.720 1637.737, 1183.609 1639.176 C 1184.026 1639.851, 1183.864 1640.034, 1183.206 1639.627 C 1181.783 1638.748, 1173.666 1649.650, 1174.608 1651.175 C 1174.994 1651.799, 1174.893 1652.052, 1174.384 1651.737 C 1172.993 1650.877, 1157.250 1674.966, 1147.745 1692.500 C 1100.351 1779.922, 1086.290 1872.513, 1108.795 1949 C 1114.355 1967.897, 1115.873 1971.889, 1124.770 1991 C 1131.765 2006.025, 1147.554 2031.394, 1149.255 2030.342 C 1149.842 2029.979, 1150.016 2030.165, 1149.648 2030.760 C 1148.570 2032.505, 1162.617 2050.355, 1164.267 2049.335 C 1164.843 2048.979, 1165.013 2049.169, 1164.648 2049.761 C 1163.771 2051.179, 1168.881 2057.192, 1170.246 2056.348 C 1170.887 2055.952, 1171.014 2056.168, 1170.565 2056.895 C 1169.579 2058.490, 1192.562 2081.389, 1194.158 2080.402 C 1194.841 2079.980, 1195.038 2080.130, 1194.643 2080.769 C 1194.025 2081.768, 1198.226 2085.513, 1200.500 2085.990 C 1201.050 2086.106, 1201.407 2086.547, 1201.293 2086.970 C 1200.741 2089.029, 1236.872 2115.208, 1252.500 2124.073 C 1255.800 2125.945, 1260.300 2128.507, 1262.500 2129.766 C 1268.959 2133.464, 1293.786 2145.414, 1303 2149.259 C 1321.615 2157.028, 1332.725 2160.991, 1356.500 2168.341 C 1370.257 2172.594, 1405.042 2180.435, 1424 2183.556 C 1425.375 2183.783, 1432.575 2184.670, 1440 2185.529 C 1447.425 2186.388, 1457.100 2187.545, 1461.500 2188.101 C 1496.404 2192.513, 1542.698 2192.181, 1590 2187.182 C 1600.725 2186.048, 1617.011 2184.641, 1626.191 2184.054 C 1645.827 2182.800, 1685.276 2177.984, 1699.500 2175.105 C 1705 2173.992, 1712.425 2172.601, 1716 2172.014 C 1719.575 2171.427, 1727 2169.869, 1732.500 2168.552 C 1738 2167.235, 1743.850 2165.881, 1745.500 2165.544 C 1754.100 2163.787, 1789.104 2153.718, 1801 2149.579 C 1821.582 2142.418, 1841.284 2134.929, 1848.500 2131.524 C 1850.150 2130.746, 1856.675 2127.778, 1863 2124.929 C 1899.707 2108.393, 1939.848 2084.706, 1969.503 2062.080 C 1985.977 2049.511, 1992.895 2043.640, 1992.322 2042.712 C 1991.975 2042.151, 1992.105 2041.947, 1992.612 2042.260 C 1993.119 2042.573, 1995.101 2041.480, 1997.017 2039.831 C 1998.932 2038.181, 1999.868 2037.164, 1999.095 2037.570 C 1998.162 2038.061, 1997.934 2037.917, 1998.415 2037.138 C 1998.813 2036.494, 1999.505 2036.194, 1999.953 2036.471 C 2001.665 2037.529, 2038.330 2001.343, 2037.275 1999.636 C 2036.954 1999.116, 2037.160 1998.981, 2037.734 1999.336 C 2038.998 2000.117, 2044.208 1993.574, 2043.207 1992.463 C 2042.818 1992.032, 2042.997 1991.963, 2043.605 1992.309 C 2044.962 1993.082, 2049.044 1988.904, 2049.418 1986.358 C 2049.568 1985.336, 2050.217 1984.500, 2050.860 1984.500 C 2053.202 1984.500, 2074.446 1956.531, 2073.396 1954.831 C 2072.993 1954.180, 2073.132 1953.963, 2073.720 1954.327 C 2075.531 1955.446, 2094.549 1925.763, 2093.355 1923.680 C 2092.983 1923.031, 2093.049 1922.835, 2093.500 1923.244 C 2095.002 1924.604, 2104.582 1906.931, 2114.502 1884.500 C 2120.177 1871.668, 2121.689 1867.759, 2125.918 1855 C 2131.982 1836.705, 2132.056 1836.427, 2137.571 1811.500 C 2142.800 1787.864, 2142.405 1857.098, 2142.721 907.250 L 2143.012 32 2023.506 32 L 1904 32 1903.965 723.750 M 80 182.500 L 80 307 813 307 L 1546 307 1546 182.500 L 1546 58 813 58 L 80 58 80 182.500 M 80 717.500 L 80 842 813 842 L 1546 842 1546 717.500 L 1546 593 813 593 L 80 593 80 717.500 M 80 1251.753 L 80 1376.006 618.250 1375.753 L 1156.500 1375.500 1165.500 1369.609 C 1176.470 1362.429, 1192.508 1352.787, 1201.500 1347.966 C 1203.150 1347.082, 1207.650 1344.626, 1211.500 1342.510 C 1219.054 1338.357, 1246.661 1324.494, 1254 1321.170 C 1280.314 1309.248, 1311.413 1296.897, 1327.500 1291.979 C 1330.800 1290.970, 1336.875 1289.010, 1341 1287.624 C 1373.005 1276.867, 1432.727 1262.936, 1459.500 1259.981 C 1463.350 1259.556, 1473.475 1258.284, 1482 1257.154 C 1495.364 1255.382, 1529.805 1253, 1542.055 1253 L 1546 1253 1546 1190.501 L 1546 1128.003 813 1127.751 L 80 1127.500 80 1251.753 M 80 1786.493 L 80 1910.985 474.939 1910.996 C 692.155 1911.002, 870.078 1910.668, 870.323 1910.254 C 870.567 1909.839, 870.303 1906.575, 869.736 1903 C 868.327 1894.127, 868.354 1837.691, 869.772 1826.500 C 870.399 1821.550, 871.665 1810.975, 872.584 1803 C 875.355 1778.955, 882.882 1743.221, 889.962 1720.500 C 891.504 1715.550, 893.450 1709.250, 894.286 1706.500 C 896.519 1699.157, 906.327 1672.671, 909.375 1665.750 L 911.027 1662 495.513 1662 L 80 1662 80 1786.493 M 1514.292 2190.742 C 1518.027 2190.935, 1523.877 2190.934, 1527.292 2190.739 C 1530.706 2190.545, 1527.650 2190.387, 1520.500 2190.389 C 1513.350 2190.390, 1510.556 2190.550, 1514.292 2190.742" stroke="none" fill="#3a3a3a" fill-rule="evenodd"/><path d="M 1903.965 723.750 C 1903.928 1464.567, 1904.197 1424.814, 1899.155 1434.697 C 1890.205 1452.240, 1872.252 1453.716, 1822 1441.042 C 1813.437 1438.882, 1800.034 1435.631, 1777 1430.128 C 1696.312 1410.850, 1614.424 1408.077, 1539 1422.070 C 1510.155 1427.422, 1482.380 1434.454, 1461.500 1441.693 C 1457.650 1443.028, 1452.250 1444.796, 1449.500 1445.622 C 1446.750 1446.448, 1443.150 1447.726, 1441.500 1448.463 C 1439.850 1449.199, 1436.250 1450.550, 1433.500 1451.466 C 1428.018 1453.290, 1421.084 1456.166, 1407.829 1462.111 C 1403.059 1464.250, 1398.872 1466, 1398.524 1466 C 1397.719 1466, 1365.834 1481.952, 1360.500 1485.024 C 1358.300 1486.290, 1355.152 1488.016, 1353.505 1488.859 C 1351.857 1489.702, 1346.907 1492.619, 1342.505 1495.341 C 1338.102 1498.063, 1333.038 1501.169, 1331.251 1502.243 C 1329.465 1503.317, 1328.297 1504.671, 1328.656 1505.252 C 1329.046 1505.884, 1328.830 1506.013, 1328.118 1505.573 C 1326.009 1504.270, 1277.558 1538.382, 1277.455 1541.243 C 1277.430 1541.935, 1276.865 1542.387, 1276.200 1542.249 C 1274.569 1541.909, 1253.506 1560.297, 1253.478 1562.085 C 1253.465 1562.863, 1252.773 1563.390, 1251.939 1563.255 C 1251.105 1563.120, 1247.980 1565.482, 1244.995 1568.505 C 1242.011 1571.527, 1239.946 1574, 1240.407 1574 C 1240.868 1574, 1240.689 1574.670, 1240.009 1575.489 C 1239.329 1576.308, 1238.440 1576.772, 1238.032 1576.520 C 1237.216 1576.015, 1232.410 1580.758, 1232.650 1581.831 C 1232.733 1582.199, 1232.455 1582.407, 1232.033 1582.294 C 1231.115 1582.048, 1227.189 1586.078, 1226.961 1587.500 C 1226.872 1588.050, 1226.447 1588.405, 1226.015 1588.288 C 1224.558 1587.896, 1213.850 1599.948, 1214.591 1601.147 C 1214.995 1601.802, 1214.876 1602.041, 1214.317 1601.696 C 1212.638 1600.658, 1193.525 1622.423, 1194.595 1624.154 C 1194.900 1624.647, 1194.696 1624.926, 1194.143 1624.775 C 1192.754 1624.395, 1187.921 1631.064, 1188.688 1632.304 C 1189.029 1632.857, 1188.861 1633.032, 1188.314 1632.694 C 1186.979 1631.869, 1182.720 1637.737, 1183.609 1639.176 C 1184.026 1639.851, 1183.864 1640.034, 1183.206 1639.627 C 1181.783 1638.748, 1173.666 1649.650, 1174.608 1651.175 C 1174.994 1651.799, 1174.893 1652.052, 1174.384 1651.737 C 1172.993 1650.877, 1157.250 1674.966, 1147.745 1692.500 C 1100.351 1779.922, 1086.290 1872.513, 1108.795 1949 C 1114.355 1967.897, 1115.873 1971.889, 1124.770 1991 C 1131.765 2006.025, 1147.554 2031.394, 1149.255 2030.342 C 1149.842 2029.979, 1150.016 2030.165, 1149.648 2030.760 C 1148.570 2032.505, 1162.617 2050.355, 1164.267 2049.335 C 1164.843 2048.979, 1165.013 2049.169, 1164.648 2049.761 C 1163.771 2051.179, 1168.881 2057.192, 1170.246 2056.348 C 1170.887 2055.952, 1171.014 2056.168, 1170.565 2056.895 C 1169.579 2058.490, 1192.562 2081.389, 1194.158 2080.402 C 1194.841 2079.980, 1195.038 2080.130, 1194.643 2080.769 C 1194.025 2081.768, 1198.226 2085.513, 1200.500 2085.990 C 1201.050 2086.106, 1201.407 2086.547, 1201.293 2086.970 C 1200.741 2089.029, 1236.872 2115.208, 1252.500 2124.073 C 1255.800 2125.945, 1260.300 2128.507, 1262.500 2129.766 C 1268.959 2133.464, 1293.786 2145.414, 1303 2149.259 C 1321.615 2157.028, 1332.725 2160.991, 1356.500 2168.341 C 1370.257 2172.594, 1405.042 2180.435, 1424 2183.556 C 1425.375 2183.783, 1432.575 2184.670, 1440 2185.529 C 1447.425 2186.388, 1457.100 2187.545, 1461.500 2188.101 C 1496.404 2192.513, 1542.698 2192.181, 1590 2187.182 C 1600.725 2186.048, 1617.011 2184.641, 1626.191 2184.054 C 1645.827 2182.800, 1685.276 2177.984, 1699.500 2175.105 C 1705 2173.992, 1712.425 2172.601, 1716 2172.014 C 1719.575 2171.427, 1727 2169.869, 1732.500 2168.552 C 1738 2167.235, 1743.850 2165.881, 1745.500 2165.544 C 1754.100 2163.787, 1789.104 2153.718, 1801 2149.579 C 1821.582 2142.418, 1841.284 2134.929, 1848.500 2131.524 C 1850.150 2130.746, 1856.675 2127.778, 1863 2124.929 C 1899.707 2108.393, 1939.848 2084.706, 1969.503 2062.080 C 1985.977 2049.511, 1992.895 2043.640, 1992.322 2042.712 C 1991.975 2042.151, 1992.105 2041.947, 1992.612 2042.260 C 1993.119 2042.573, 1995.101 2041.480, 1997.017 2039.831 C 1998.932 2038.181, 1999.868 2037.164, 1999.095 2037.570 C 1998.162 2038.061, 1997.934 2037.917, 1998.415 2037.138 C 1998.813 2036.494, 1999.505 2036.194, 1999.953 2036.471 C 2001.665 2037.529, 2038.330 2001.343, 2037.275 1999.636 C 2036.954 1999.116, 2037.160 1998.981, 2037.734 1999.336 C 2038.998 2000.117, 2044.208 1993.574, 2043.207 1992.463 C 2042.818 1992.032, 2042.997 1991.963, 2043.605 1992.309 C 2044.962 1993.082, 2049.044 1988.904, 2049.418 1986.358 C 2049.568 1985.336, 2050.217 1984.500, 2050.860 1984.500 C 2053.202 1984.500, 2074.446 1956.531, 2073.396 1954.831 C 2072.993 1954.180, 2073.132 1953.963, 2073.720 1954.327 C 2075.531 1955.446, 2094.549 1925.763, 2093.355 1923.680 C 2092.983 1923.031, 2093.049 1922.835, 2093.500 1923.244 C 2095.002 1924.604, 2104.582 1906.931, 2114.502 1884.500 C 2120.177 1871.668, 2121.689 1867.759, 2125.918 1855 C 2131.982 1836.705, 2132.056 1836.427, 2137.571 1811.500 C 2142.800 1787.864, 2142.405 1857.098, 2142.721 907.250 L 2143.012 32 2023.506 32 L 1904 32 1903.965 723.750 M 80 182.500 L 80 307 813 307 L 1546 307 1546 182.500 L 1546 58 813 58 L 80 58 80 182.500 M 80 717.500 L 80 842 813 842 L 1546 842 1546 717.500 L 1546 593 813 593 L 80 593 80 717.500 M 80 1251.753 L 80 1376.006 618.250 1375.753 L 1156.500 1375.500 1165.500 1369.609 C 1176.470 1362.429, 1192.508 1352.787, 1201.500 1347.966 C 1203.150 1347.082, 1207.650 1344.626, 1211.500 1342.510 C 1219.054 1338.357, 1246.661 1324.494, 1254 1321.170 C 1280.314 1309.248, 1311.413 1296.897, 1327.500 1291.979 C 1330.800 1290.970, 1336.875 1289.010, 1341 1287.624 C 1373.005 1276.867, 1432.727 1262.936, 1459.500 1259.981 C 1463.350 1259.556, 1473.475 1258.284, 1482 1257.154 C 1495.364 1255.382, 1529.805 1253, 1542.055 1253 L 1546 1253 1546 1190.501 L 1546 1128.003 813 1127.751 L 80 1127.500 80 1251.753 M 80 1786.493 L 80 1910.985 474.939 1910.996 C 692.155 1911.002, 870.078 1910.668, 870.323 1910.254 C 870.567 1909.839, 870.303 1906.575, 869.736 1903 C 868.327 1894.127, 868.354 1837.691, 869.772 1826.500 C 870.399 1821.550, 871.665 1810.975, 872.584 1803 C 875.355 1778.955, 882.882 1743.221, 889.962 1720.500 C 891.504 1715.550, 893.450 1709.250, 894.286 1706.500 C 896.519 1699.157, 906.327 1672.671, 909.375 1665.750 L 911.027 1662 495.513 1662 L 80 1662 80 1786.493 M 1514.292 2190.742 C 1518.027 2190.935, 1523.877 2190.934, 1527.292 2190.739 C 1530.706 2190.545, 1527.650 2190.387, 1520.500 2190.389 C 1513.350 2190.390, 1510.556 2190.550, 1514.292 2190.742" stroke="none" fill="#3a3a3a" fill-rule="evenodd"/><path d="M 1902.497 721 C 1902.497 1100.225, 1902.611 1255.362, 1902.750 1065.750 C 1902.889 876.137, 1902.889 565.862, 1902.750 376.250 C 1902.611 186.637, 1902.497 341.775, 1902.497 721 M 2191 1111.513 L 2191 2191.027 1871.861 2190.986 C 1696.334 2190.964, 1552.484 2191.183, 1552.194 2191.473 C 1551.904 2191.763, 1695.742 2192, 1871.833 2192 L 2192 2192 2192 1112 C 2192 518, 2191.775 32, 2191.500 32 C 2191.225 32, 2191 517.781, 2191 1111.513 M 813.250 57.750 L 1547 58.001 1547 182.451 C 1547 299.919, 1546.902 306.958, 1545.250 307.920 C 1544.287 308.481, 1544.007 308.953, 1544.628 308.970 C 1547.968 309.060, 1548.010 307.346, 1547.754 181.893 L 1547.500 57.500 813.500 57.499 L 79.500 57.498 813.250 57.750 M 78.246 182.550 C 77.996 308.368, 78.012 309, 81.391 309 C 81.936 309, 81.620 308.437, 80.689 307.750 C 79.117 306.589, 78.978 297.670, 78.744 182.500 L 78.492 58.500 78.246 182.550 M 448.332 591.750 C 649.540 591.889, 978.490 591.889, 1179.332 591.750 C 1380.175 591.611, 1215.550 591.497, 813.500 591.497 C 411.450 591.497, 247.125 591.611, 448.332 591.750 M 78.485 717 C 78.485 785.475, 78.604 813.487, 78.750 779.250 C 78.896 745.013, 78.896 688.987, 78.750 654.750 C 78.604 620.513, 78.485 648.525, 78.485 717 M 1547.246 717.249 L 1547 841.999 812.750 842.250 L 78.500 842.501 812.781 842.751 C 1399.470 842.950, 1547.158 842.749, 1547.539 841.750 C 1547.800 841.063, 1547.897 784.700, 1547.753 716.500 L 1547.492 592.500 1547.246 717.249 M 78.667 1126.667 C 77.741 1127.593, 77.824 1375.773, 78.750 1376.345 C 79.162 1376.600, 79.500 1320.377, 79.500 1251.405 C 79.500 1182.432, 79.463 1126, 79.417 1126 C 79.371 1126, 79.033 1126.300, 78.667 1126.667 M 1547 1189.800 L 1547.500 1253.500 1547.757 1190.558 C 1547.899 1155.939, 1547.674 1127.274, 1547.258 1126.857 C 1546.841 1126.440, 1546.725 1154.765, 1547 1189.800 M 1631.292 1411.742 C 1635.027 1411.935, 1640.877 1411.934, 1644.292 1411.739 C 1647.706 1411.545, 1644.650 1411.387, 1637.500 1411.389 C 1630.350 1411.390, 1627.556 1411.550, 1631.292 1411.742 M 78.461 1662.250 C 78.200 1662.938, 78.101 1719.075, 78.243 1787 L 78.500 1910.500 79 1785.750 C 79.275 1717.137, 79.373 1661, 79.219 1661 C 79.064 1661, 78.723 1661.563, 78.461 1662.250 M 869.389 1866.500 C 869.390 1873.650, 869.550 1876.444, 869.742 1872.708 C 869.935 1868.973, 869.934 1863.123, 869.739 1859.708 C 869.545 1856.294, 869.387 1859.350, 869.389 1866.500 M 478 1911 L 84.500 1911.504 477.691 1911.752 C 739.008 1911.917, 871.089 1911.665, 871.500 1911 C 871.840 1910.450, 871.979 1910.112, 871.809 1910.248 C 871.639 1910.385, 694.425 1910.723, 478 1911 M 751.500 2191 L 31.500 2191.502 760.500 2191.636 C 1161.450 2191.710, 1487.700 2191.398, 1485.500 2190.943 C 1483.300 2190.488, 1479.250 2190.201, 1476.500 2190.307 C 1473.750 2190.412, 1147.500 2190.724, 751.500 2191" stroke="none" fill="#fafafa" fill-rule="evenodd"/><path d="M 1903 724 C 1902.725 1104.875, 1902.612 1416.688, 1902.750 1416.917 C 1903.855 1418.758, 1903.973 1336.999, 1903.751 723.916 L 1903.500 31.500 1903 724 M 2142.974 900.750 C 2142.958 1437.338, 2142.588 1773.323, 2142.005 1779.500 C 2141.486 1785, 2140.772 1791.750, 2140.418 1794.500 C 2140.064 1797.250, 2140.029 1799.258, 2140.341 1798.963 C 2140.652 1798.668, 2141.376 1794.393, 2141.950 1789.463 C 2142.523 1784.533, 2143.305 1778.700, 2143.688 1776.500 C 2144.842 1769.861, 2145.158 32, 2144.005 32 C 2143.332 32, 2142.991 319.322, 2142.974 900.750 M 79.494 182.500 L 79.500 307.500 813 307.500 L 1546.500 307.500 1546.506 182.750 L 1546.512 58 1546.252 182.500 L 1545.992 307 813 307 L 80.008 307 79.748 182.250 L 79.488 57.500 79.494 182.500 M 79.365 592.500 C 79.156 593.050, 79.103 649.525, 79.247 718 L 79.508 842.500 79.754 717.750 L 80 593 812.996 593 L 1545.992 593 1546.250 717.750 L 1546.508 842.500 1546.754 717.250 C 1546.889 648.362, 1546.662 592, 1546.250 592 C 1545.838 592, 1215.705 591.887, 812.623 591.750 C 324.728 591.584, 79.618 591.834, 79.365 592.500 M 79.462 1127.249 C 79.200 1127.937, 79.101 1184.300, 79.243 1252.500 L 79.500 1376.500 617.360 1376.751 L 1155.219 1377.002 1163.678 1371.751 C 1168.330 1368.863, 1173.703 1365.555, 1175.618 1364.401 C 1177.532 1363.246, 1179.639 1361.728, 1180.299 1361.028 C 1182.252 1358.958, 1177.976 1361.405, 1166.645 1368.841 L 1156.500 1375.500 618.250 1375.753 L 80 1376.006 80 1251.753 L 80 1127.500 813 1127.751 L 1546 1128.003 1546 1190.461 L 1546 1252.919 1537.750 1253.256 L 1529.500 1253.593 1538.257 1253.796 L 1547.015 1254 1546.757 1190.250 L 1546.500 1126.500 813.219 1126.249 C 227.118 1126.049, 79.842 1126.250, 79.462 1127.249 M 1505.500 1254.647 C 1492.611 1255.648, 1478.127 1257.460, 1478.951 1257.969 C 1479.478 1258.296, 1485.443 1257.986, 1492.205 1257.281 C 1498.967 1256.575, 1509.900 1255.614, 1516.500 1255.143 L 1528.500 1254.287 1519 1254.312 C 1513.775 1254.325, 1507.700 1254.476, 1505.500 1254.647 M 1446.500 1261.795 C 1438.206 1263.403, 1437.345 1263.679, 1438.141 1264.474 C 1438.402 1264.735, 1443.989 1263.870, 1450.557 1262.552 C 1457.432 1261.173, 1460.803 1260.175, 1458.500 1260.200 C 1456.300 1260.224, 1450.900 1260.942, 1446.500 1261.795 M 1410.500 1269.027 C 1399.181 1272.007, 1401.067 1272.342, 1413.500 1269.561 C 1426.730 1266.601, 1427.995 1266.211, 1424.500 1266.168 C 1422.850 1266.148, 1416.550 1267.434, 1410.500 1269.027 M 1385.248 1274.758 C 1379.309 1276.286, 1375.368 1277.768, 1375.880 1278.280 C 1376.392 1278.792, 1377.550 1278.731, 1378.632 1278.133 C 1379.659 1277.566, 1384.775 1275.989, 1390 1274.629 C 1395.225 1273.268, 1398.600 1272.147, 1397.500 1272.138 C 1396.400 1272.128, 1390.887 1273.308, 1385.248 1274.758 M 1195 1351.420 C 1193.075 1352.685, 1189.327 1354.948, 1186.671 1356.448 C 1184.016 1357.949, 1182.065 1359.398, 1182.336 1359.669 C 1182.826 1360.159, 1187.046 1358.246, 1188 1357.100 C 1188.275 1356.770, 1190.075 1355.695, 1192 1354.712 C 1196.183 1352.574, 1200.907 1349.029, 1199.500 1349.082 C 1198.950 1349.103, 1196.925 1350.155, 1195 1351.420 M 1607 1412.941 C 1601.775 1413.249, 1615.275 1413.500, 1637 1413.500 C 1658.725 1413.500, 1671.550 1413.220, 1665.500 1412.877 C 1652.303 1412.130, 1620.200 1412.165, 1607 1412.941 M 1559.573 1417.316 C 1553.012 1418.452, 1548.198 1419.566, 1548.875 1419.792 C 1550.823 1420.441, 1573 1416.836, 1573 1415.870 C 1573 1415.392, 1572.662 1415.056, 1572.250 1415.125 C 1571.838 1415.194, 1566.133 1416.180, 1559.573 1417.316 M 1707 1416.691 C 1707 1417.558, 1721.001 1420, 1725.969 1420 C 1730.278 1420, 1727.605 1419.187, 1719.670 1418.085 C 1715.363 1417.487, 1710.751 1416.724, 1709.420 1416.390 C 1708.089 1416.056, 1707 1416.192, 1707 1416.691 M 1735 1420.667 C 1735 1421.620, 1763.845 1427.488, 1764.638 1426.696 C 1764.893 1426.440, 1762.491 1425.732, 1759.301 1425.122 C 1753.604 1424.032, 1745.445 1422.382, 1741.500 1421.522 C 1740.400 1421.282, 1738.487 1420.789, 1737.250 1420.426 C 1736.013 1420.063, 1735 1420.172, 1735 1420.667 M 1523 1424.016 C 1521.625 1424.487, 1517.877 1425.391, 1514.671 1426.024 C 1511.465 1426.657, 1509.031 1427.365, 1509.264 1427.597 C 1509.751 1428.084, 1529.118 1424.216, 1529.848 1423.485 C 1530.632 1422.702, 1525.721 1423.082, 1523 1424.016 M 1502.500 1428.477 C 1500.300 1429.203, 1496.350 1430.355, 1493.721 1431.037 C 1491.093 1431.718, 1489.172 1432.505, 1489.452 1432.785 C 1490.222 1433.556, 1507 1428.844, 1507 1427.858 C 1507 1427.386, 1506.888 1427.036, 1506.750 1427.079 C 1506.612 1427.122, 1504.700 1427.752, 1502.500 1428.477 M 1771 1427.888 C 1771 1428.939, 1788.345 1433.385, 1790.128 1432.791 C 1791.100 1432.467, 1777.487 1428.680, 1774.833 1428.536 C 1774.467 1428.516, 1773.829 1428.162, 1773.417 1427.750 C 1772.392 1426.725, 1771 1426.805, 1771 1427.888 M 1796 1433.946 C 1796 1434.764, 1812.121 1439.039, 1814.641 1438.889 C 1815.663 1438.829, 1814.250 1438.192, 1811.500 1437.476 C 1808.750 1436.759, 1804.138 1435.525, 1801.250 1434.733 C 1798.362 1433.941, 1796 1433.587, 1796 1433.946 M 1830 1442.795 C 1831.784 1443.885, 1849.005 1447.328, 1849.617 1446.717 C 1849.850 1446.484, 1846.319 1445.507, 1841.770 1444.547 C 1829.063 1441.864, 1828.288 1441.749, 1830 1442.795 M 1853.087 1447.381 C 1855.302 1449.746, 1882 1450.233, 1882 1447.909 C 1882 1447.436, 1880.537 1447.364, 1878.750 1447.747 C 1874.577 1448.641, 1868.294 1448.582, 1859.500 1447.564 C 1855.650 1447.118, 1852.764 1447.036, 1853.087 1447.381 M 1331 1501.291 C 1321.854 1506.904, 1310 1515.035, 1310 1515.695 C 1310 1516.156, 1309.973 1516.172, 1319.758 1509.696 C 1323.755 1507.051, 1327.532 1505.211, 1328.163 1505.601 C 1328.818 1506.006, 1329.038 1505.870, 1328.675 1505.284 C 1328.327 1504.720, 1330.732 1502.598, 1334.021 1500.568 C 1337.309 1498.538, 1340 1496.680, 1340 1496.439 C 1340 1495.764, 1340.035 1495.745, 1331 1501.291 M 1304.944 1518.465 C 1303.050 1519.820, 1301.050 1521.300, 1300.500 1521.754 C 1299.950 1522.208, 1296.013 1525.152, 1291.750 1528.297 C 1287.487 1531.441, 1284 1534.274, 1284 1534.591 C 1284 1534.907, 1285.237 1534.228, 1286.750 1533.081 C 1288.263 1531.933, 1293.888 1527.803, 1299.250 1523.903 C 1307.867 1517.635, 1309.821 1516, 1308.694 1516 C 1308.526 1516, 1306.839 1517.109, 1304.944 1518.465 M 1258.500 1555.139 C 1241.539 1570.178, 1215.705 1596.256, 1205.127 1609.018 L 1199.753 1615.500 1206.321 1608.500 C 1209.934 1604.650, 1213.398 1601.624, 1214.019 1601.775 C 1214.640 1601.926, 1214.862 1601.585, 1214.511 1601.017 C 1213.748 1599.783, 1224.736 1587.985, 1226.365 1588.288 C 1226.989 1588.405, 1227.407 1587.997, 1227.294 1587.383 C 1227.085 1586.247, 1230.880 1582.171, 1232.250 1582.061 C 1232.662 1582.027, 1232.888 1581.811, 1232.750 1581.581 C 1232.297 1580.820, 1237.274 1576.051, 1238.032 1576.520 C 1238.440 1576.772, 1239.329 1576.308, 1240.009 1575.489 C 1240.689 1574.670, 1240.868 1574, 1240.407 1574 C 1239.946 1574, 1242.011 1571.527, 1244.995 1568.505 C 1247.980 1565.482, 1251.105 1563.120, 1251.939 1563.255 C 1252.773 1563.390, 1253.465 1562.903, 1253.478 1562.174 C 1253.490 1561.445, 1256.650 1557.976, 1260.500 1554.464 C 1264.350 1550.952, 1267.275 1548.071, 1267 1548.062 C 1266.725 1548.053, 1262.900 1551.238, 1258.500 1555.139 M 1198.500 1616.765 C 1197.514 1617.490, 1196.586 1618.661, 1186.033 1632.500 C 1178.392 1642.520, 1178.242 1642.748, 1180.598 1640.748 C 1181.734 1639.784, 1183.035 1639.334, 1183.491 1639.748 C 1183.948 1640.162, 1184.003 1639.947, 1183.615 1639.271 C 1182.737 1637.745, 1186.948 1631.850, 1188.314 1632.694 C 1188.861 1633.032, 1189.029 1632.857, 1188.688 1632.304 C 1187.921 1631.064, 1192.754 1624.395, 1194.143 1624.775 C 1194.696 1624.926, 1194.911 1624.665, 1194.621 1624.196 C 1194.331 1623.726, 1195.455 1621.690, 1197.120 1619.671 C 1200.111 1616.042, 1200.447 1615.335, 1198.500 1616.765 M 79.607 1661.582 C 78.721 1663.892, 78.862 1912, 79.750 1912 C 80.162 1912, 80.384 1855.750, 80.242 1787 L 79.985 1662 495.461 1662 C 890.693 1662, 910.911 1662.085, 910.393 1663.750 C 909.879 1665.405, 909.910 1665.404, 910.979 1663.742 C 911.600 1662.775, 911.832 1661.538, 911.495 1660.992 C 910.321 1659.092, 80.337 1659.680, 79.607 1661.582 M 881.587 1751.820 C 880.164 1757.771, 879.036 1763.509, 879.079 1764.570 C 879.183 1767.117, 879.430 1766.279, 882.042 1754.500 C 883.261 1749, 884.651 1744.072, 885.129 1743.550 C 886.264 1742.312, 886.242 1741, 885.087 1741 C 884.585 1741, 883.010 1745.869, 881.587 1751.820 M 875.656 1780.430 C 874.745 1785.066, 874.048 1790.128, 874.107 1791.680 C 874.186 1793.764, 874.448 1793.325, 875.110 1790 C 877.348 1778.763, 878.290 1774.410, 878.734 1773.250 C 878.998 1772.563, 878.786 1772, 878.263 1772 C 877.740 1772, 876.567 1775.793, 875.656 1780.430 M 1100.721 1826.727 C 1099.775 1832.721, 1099.061 1839.397, 1099.136 1841.563 C 1099.221 1844.020, 1099.415 1844.560, 1099.652 1843 C 1101.938 1827.958, 1103.160 1817.980, 1102.837 1817.010 C 1102.620 1816.360, 1101.668 1820.732, 1100.721 1826.727 M 869.390 1830.750 C 867.602 1850.550, 868.723 1908.907, 870.865 1907.583 C 871.242 1907.350, 870.925 1899.136, 870.160 1889.330 C 868.842 1872.433, 869.864 1828.124, 871.681 1823.388 C 871.974 1822.624, 871.756 1822, 871.197 1822 C 870.637 1822, 869.824 1825.938, 869.390 1830.750 M 1099.099 1905.674 C 1099.007 1909.552, 1099.409 1912.111, 1101.976 1924 L 1102.948 1928.500 1102.430 1923.500 C 1101.305 1912.622, 1099.201 1901.363, 1099.099 1905.674 M 1104.757 1937.577 C 1104.414 1937.919, 1104.518 1939.167, 1104.987 1940.350 C 1105.456 1941.532, 1106.857 1945.982, 1108.099 1950.237 C 1109.342 1954.493, 1110.517 1957.816, 1110.711 1957.623 C 1110.904 1957.429, 1109.784 1952.699, 1108.221 1947.112 C 1106.658 1941.525, 1105.099 1937.234, 1104.757 1937.577 M 2058.447 1976.457 C 2054.761 1981.109, 2051.299 1984.822, 2050.755 1984.707 C 2050.211 1984.593, 2049.626 1985.336, 2049.455 1986.358 C 2049.026 1988.929, 2044.950 1993.075, 2043.605 1992.309 C 2042.997 1991.963, 2042.818 1992.032, 2043.207 1992.463 C 2044.243 1993.612, 2038.983 2000.098, 2037.639 1999.330 C 2037.012 1998.972, 2036.849 1999.063, 2037.276 1999.532 C 2037.702 2000.001, 2035.902 2002.679, 2033.276 2005.483 C 2030.649 2008.287, 2032.325 2006.728, 2037 2002.018 C 2041.675 1997.308, 2047.764 1990.765, 2050.531 1987.477 C 2058.061 1978.529, 2066.241 1968, 2065.661 1968 C 2065.380 1968, 2062.133 1971.806, 2058.447 1976.457 M 2009.659 2028.515 C 2004.796 2033.148, 2000.317 2036.840, 1999.704 2036.720 C 1999.092 2036.599, 1998.570 2037.022, 1998.545 2037.659 C 1998.481 2039.295, 1993.433 2043.084, 1992.474 2042.217 C 1992.037 2041.823, 1991.960 2041.993, 1992.303 2042.595 C 1993.033 2043.877, 1969.445 2062.854, 1955.206 2072.442 C 1952.845 2074.032, 1950.643 2075.768, 1950.315 2076.300 C 1949.672 2077.340, 1960.564 2070.180, 1965.500 2066.317 C 1967.150 2065.026, 1968.950 2063.636, 1969.500 2063.228 C 1977.523 2057.273, 2000.278 2038.652, 2003.994 2035 C 2004.834 2034.175, 2006.641 2032.572, 2008.011 2031.438 C 2010.952 2029.001, 2019.621 2019.980, 2018.958 2020.045 C 2018.706 2020.070, 2014.521 2023.881, 2009.659 2028.515 M 1155.574 2041.750 C 1163.537 2051.664, 1176.086 2065.726, 1182.124 2071.500 C 1185.952 2075.161, 1184.804 2073.676, 1179.177 2067.690 C 1174.033 2062.216, 1170.256 2057.395, 1170.633 2056.785 C 1171.018 2056.162, 1170.851 2055.974, 1170.246 2056.348 C 1168.881 2057.192, 1163.771 2051.179, 1164.648 2049.761 C 1165.019 2049.160, 1164.842 2048.980, 1164.244 2049.349 C 1163.654 2049.714, 1160.869 2047.106, 1158.003 2043.504 C 1155.157 2039.927, 1152.587 2037, 1152.293 2037 C 1152 2037, 1153.476 2039.138, 1155.574 2041.750 M 1189.520 2078.024 C 1190.384 2080.047, 1214 2099.978, 1214 2098.684 C 1214 2098.417, 1211.096 2095.842, 1207.546 2092.962 C 1203.996 2090.082, 1201.184 2087.382, 1201.296 2086.963 C 1201.408 2086.543, 1201.050 2086.106, 1200.500 2085.990 C 1198.138 2085.494, 1194.027 2081.759, 1194.649 2080.674 C 1195.018 2080.028, 1194.944 2079.842, 1194.485 2080.259 C 1194.025 2080.677, 1192.578 2080.012, 1191.269 2078.783 C 1189.960 2077.553, 1189.173 2077.211, 1189.520 2078.024 M 1923.946 2092.811 C 1921.501 2094.357, 1914.888 2098.208, 1909.250 2101.367 C 1903.612 2104.527, 1899 2107.324, 1899 2107.583 C 1899 2108.215, 1910.770 2101.919, 1919.835 2096.436 C 1923.869 2093.996, 1927.582 2092, 1928.085 2092 C 1928.588 2092, 1929 2091.550, 1929 2091 C 1929 2089.626, 1928.960 2089.641, 1923.946 2092.811 M 1876 2118.619 C 1865.825 2123.737, 1857.782 2127.942, 1858.126 2127.963 C 1859.867 2128.067, 1893.622 2111.776, 1895.450 2109.950 C 1897.341 2108.059, 1894.270 2109.428, 1876 2118.619 M 1767.500 2159.717 C 1760.960 2161.303, 1750.158 2164.954, 1753.500 2164.449 C 1757.589 2163.832, 1765.912 2161.510, 1769.500 2159.985 C 1771.662 2159.066, 1770.709 2158.939, 1767.500 2159.717 M 1709.782 2173 C 1698.878 2175.033, 1696.305 2175.805, 1700.047 2175.921 C 1702.295 2175.991, 1719.879 2172.565, 1722.500 2171.546 C 1724.867 2170.627, 1718.779 2171.323, 1709.782 2173 M 1403 2180.556 C 1412.432 2182.702, 1419.323 2183.424, 1412 2181.499 C 1408.975 2180.703, 1404.250 2179.833, 1401.500 2179.565 C 1396.799 2179.106, 1396.888 2179.166, 1403 2180.556 M 1658.500 2180.887 C 1651.900 2181.760, 1647.850 2182.634, 1649.500 2182.831 C 1652.343 2183.170, 1677.033 2180.166, 1677.917 2179.374 C 1678.709 2178.663, 1670.452 2179.307, 1658.500 2180.887 M 1440 2186.494 C 1458.211 2189.246, 1464.508 2189.849, 1465.450 2188.928 C 1466.038 2188.353, 1464.896 2187.988, 1462.450 2187.968 C 1460.277 2187.951, 1454 2187.285, 1448.500 2186.488 C 1443 2185.691, 1436.925 2185.077, 1435 2185.124 C 1433.075 2185.171, 1435.325 2185.787, 1440 2186.494 M 1589.500 2186.925 C 1581.708 2187.829, 1576.054 2188.897, 1576.750 2189.334 C 1577.438 2189.765, 1578.338 2189.910, 1578.750 2189.656 C 1579.162 2189.403, 1582.875 2188.913, 1587 2188.569 C 1591.125 2188.224, 1597.650 2187.497, 1601.500 2186.953 C 1605.350 2186.408, 1611.200 2185.831, 1614.500 2185.670 C 1618.328 2185.484, 1617.423 2185.364, 1612 2185.340 C 1607.325 2185.319, 1597.200 2186.032, 1589.500 2186.925 M 1486.500 2191.057 C 1491.973 2192.189, 1504.160 2192.143, 1501.500 2191 C 1500.400 2190.527, 1495.675 2190.161, 1491 2190.185 C 1483.888 2190.223, 1483.153 2190.365, 1486.500 2191.057 M 1514.292 2190.742 C 1518.027 2190.935, 1523.877 2190.934, 1527.292 2190.739 C 1530.706 2190.545, 1527.650 2190.387, 1520.500 2190.389 C 1513.350 2190.390, 1510.556 2190.550, 1514.292 2190.742 M 1539 2191 C 1535.545 2192.107, 1549.183 2192.157, 1554.500 2191.057 C 1557.825 2190.370, 1557.066 2190.227, 1550 2190.215 C 1545.325 2190.206, 1540.375 2190.560, 1539 2191" stroke="none" fill="#3c3c3c" fill-rule="evenodd"/></svg>