<svg xmlns="http://www.w3.org/2000/svg" width="2217" height="2217" viewBox="0 0 2217 2217" version="1.1"><path d="M 1060.500 60.625 C 630.844 86.554, 275.031 344.993, 126.524 739 C -131.324 1423.106, 376.135 2155.477, 1108 2155.477 C 1865.047 2155.477, 2371.983 1378.095, 2067.234 684.500 C 1894.580 291.549, 1480.993 35.248, 1060.500 60.625 M 1090 674.669 C 911.372 682.450, 752.444 801.068, 697.654 967.500 C 582.835 1316.277, 911.187 1637.073, 1258.198 1515.146 C 1394.279 1467.332, 1503.589 1340.120, 1532.863 1195.500 C 1588.864 918.838, 1370.845 662.435, 1090 674.669 M 1087 793.614 C 777.580 821.751, 682.851 1219.770, 947.726 1378.798 C 1155.409 1503.490, 1422.380 1351.178, 1422.380 1108 C 1422.380 926.773, 1263.233 777.588, 1087 793.614 M 1089.500 939.028 C 948.161 955.057, 887.568 1127.568, 988 1228 C 1090.156 1330.156, 1264.551 1266.078, 1277.172 1121.750 C 1286.389 1016.339, 1194.727 927.094, 1089.500 939.028" stroke="none" fill="#3a3a3a" fill-rule="evenodd"/><path d="M 1060.500 60.625 C 630.844 86.554, 275.031 344.993, 126.524 739 C -131.324 1423.106, 376.135 2155.477, 1108 2155.477 C 1865.047 2155.477, 2371.983 1378.095, 2067.234 684.500 C 1894.580 291.549, 1480.993 35.248, 1060.500 60.625 M 1090 674.669 C 911.372 682.450, 752.444 801.068, 697.654 967.500 C 582.835 1316.277, 911.187 1637.073, 1258.198 1515.146 C 1394.279 1467.332, 1503.589 1340.120, 1532.863 1195.500 C 1588.864 918.838, 1370.845 662.435, 1090 674.669 M 1087 793.614 C 777.580 821.751, 682.851 1219.770, 947.726 1378.798 C 1155.409 1503.490, 1422.380 1351.178, 1422.380 1108 C 1422.380 926.773, 1263.233 777.588, 1087 793.614 M 1089.500 939.028 C 948.161 955.057, 887.568 1127.568, 988 1228 C 1090.156 1330.156, 1264.551 1266.078, 1277.172 1121.750 C 1286.389 1016.339, 1194.727 927.094, 1089.500 939.028" stroke="none" fill="#3a3a3a" fill-rule="evenodd"/><path d="M 1060.500 60.625 C 630.844 86.554, 275.031 344.993, 126.524 739 C -131.324 1423.106, 376.135 2155.477, 1108 2155.477 C 1865.047 2155.477, 2371.983 1378.095, 2067.234 684.500 C 1894.580 291.549, 1480.993 35.248, 1060.500 60.625 M 1090 674.669 C 911.372 682.450, 752.444 801.068, 697.654 967.500 C 582.835 1316.277, 911.187 1637.073, 1258.198 1515.146 C 1394.279 1467.332, 1503.589 1340.120, 1532.863 1195.500 C 1588.864 918.838, 1370.845 662.435, 1090 674.669 M 1087 793.614 C 777.580 821.751, 682.851 1219.770, 947.726 1378.798 C 1155.409 1503.490, 1422.380 1351.178, 1422.380 1108 C 1422.380 926.773, 1263.233 777.588, 1087 793.614 M 1089.500 939.028 C 948.161 955.057, 887.568 1127.568, 988 1228 C 1090.156 1330.156, 1264.551 1266.078, 1277.172 1121.750 C 1286.389 1016.339, 1194.727 927.094, 1089.500 939.028" stroke="none" fill="#3a3a3a" fill-rule="evenodd"/><path d="M 1060.500 60.625 C 630.844 86.554, 275.031 344.993, 126.524 739 C -131.324 1423.106, 376.135 2155.477, 1108 2155.477 C 1865.047 2155.477, 2371.983 1378.095, 2067.234 684.500 C 1894.580 291.549, 1480.993 35.248, 1060.500 60.625 M 1090 674.669 C 911.372 682.450, 752.444 801.068, 697.654 967.500 C 582.835 1316.277, 911.187 1637.073, 1258.198 1515.146 C 1394.279 1467.332, 1503.589 1340.120, 1532.863 1195.500 C 1588.864 918.838, 1370.845 662.435, 1090 674.669 M 1087 793.614 C 777.580 821.751, 682.851 1219.770, 947.726 1378.798 C 1155.409 1503.490, 1422.380 1351.178, 1422.380 1108 C 1422.380 926.773, 1263.233 777.588, 1087 793.614 M 1089.500 939.028 C 948.161 955.057, 887.568 1127.568, 988 1228 C 1090.156 1330.156, 1264.551 1266.078, 1277.172 1121.750 C 1286.389 1016.339, 1194.727 927.094, 1089.500 939.028" stroke="none" fill="#3a3a3a" fill-rule="evenodd"/></svg>